<?xml version="1.0" encoding="UTF-8" standalone="no"?><!DOCTYPE svg PUBLIC "-//W3C//DTD SVG 1.1//EN" "http://www.w3.org/Graphics/SVG/1.1/DTD/svg11.dtd"><svg width="100%" height="100%" viewBox="0 0 24 24" version="1.1" xmlns="http://www.w3.org/2000/svg" xmlns:xlink="http://www.w3.org/1999/xlink" xml:space="preserve" style="fill-rule:evenodd;clip-rule:evenodd;stroke-linejoin:round;stroke-miterlimit:1.41421;"><rect id="lastfm" x="0" y="0" width="24" height="24" style="fill:none;"/><clipPath id="_clip1"><rect x="0" y="0" width="24" height="24"/></clipPath><g clip-path="url(#_clip1)"><path id="LastFM-Logo" d="M12,0c6.623,0 12,5.377 12,12c0,6.623 -5.377,12 -12,12c-6.623,0 -12,-5.377 -12,-12c0,-6.623 5.377,-12 12,-12Zm-0.852,15.136l-0.53,-1.44c0,0 -0.86,0.96 -2.151,0.96c-1.141,0 -1.952,-0.993 -1.952,-2.582c0,-2.035 1.026,-2.763 2.035,-2.763c1.456,0 1.919,0.943 2.317,2.151l0.529,1.655c0.529,1.605 1.522,2.896 4.385,2.896c2.052,0 3.442,-0.629 3.442,-2.284c0,-1.34 -0.762,-2.035 -2.185,-2.366l-1.059,-0.232c-0.728,-0.165 -0.943,-0.463 -0.943,-0.959c0,-0.563 0.447,-0.894 1.175,-0.894c0.794,0 1.224,0.298 1.291,1.009l1.654,-0.198c-0.132,-1.489 -1.158,-2.102 -2.846,-2.102c-1.489,0 -2.945,0.563 -2.945,2.367c0,1.125 0.546,1.836 1.919,2.167l1.126,0.265c0.844,0.199 1.125,0.546 1.125,1.026c0,0.612 -0.596,0.86 -1.721,0.86c-1.671,0 -2.366,-0.877 -2.763,-2.085l-0.546,-1.654c-0.695,-2.151 -1.804,-2.946 -4.005,-2.946c-2.432,0 -3.723,1.539 -3.723,4.154c0,2.515 1.291,3.871 3.608,3.871c1.869,0 2.763,-0.876 2.763,-0.876Z"/></g></svg>