<?xml version="1.0" encoding="UTF-8" standalone="no"?><!DOCTYPE svg PUBLIC "-//W3C//DTD SVG 1.1//EN" "http://www.w3.org/Graphics/SVG/1.1/DTD/svg11.dtd"><svg width="100%" height="100%" viewBox="0 0 24 24" version="1.1" xmlns="http://www.w3.org/2000/svg" xmlns:xlink="http://www.w3.org/1999/xlink" xml:space="preserve" style="fill-rule:evenodd;clip-rule:evenodd;stroke-linejoin:round;stroke-miterlimit:1.41421;"><rect id="logo" x="0" y="0" width="24" height="24" style="fill:none;"/><clipPath id="_clip1"><rect x="0" y="0" width="24" height="24"/></clipPath><g clip-path="url(#_clip1)"><path d="M18.364,24l-8.427,0l-0.646,-2.687c0,0 -0.366,0.615 -2.543,0.8c-2.178,0.184 -1.912,-2.474 -1.912,-2.474c0,0 -1.45,-0.638 -1.45,-1.118c0,-0.48 0.859,-1.099 0.859,-1.099c0,0 -0.924,0.166 -1.256,-0.222c-0.333,-0.388 0.407,-1.792 0.407,-1.792c0,0 -1.137,-0.029 -1.807,-0.766c-0.67,-0.737 2.11,-2.917 2.11,-4.321c-1.574,-7.705 4.686,-11.23 11.633,-10.121c6.949,1.108 6.689,5.31 7.097,7.317c0.813,5.026 -4.361,10.644 -4.361,10.644l0.296,5.839Zm-2.587,-20.695c-0.045,0.001 -0.09,0.01 -0.134,0.026l-4.207,1.616c-0.201,0.077 -0.301,0.303 -0.224,0.504l2.036,5.303c-0.281,-0.046 -0.58,-0.014 -0.869,0.097c-0.421,0.161 -0.789,0.476 -1.037,0.887c-0.552,0.915 -0.356,2.048 0.436,2.526c0.407,0.246 0.918,0.281 1.4,0.096c0.421,-0.161 0.789,-0.476 1.037,-0.888c0.283,-0.468 0.488,-1.106 0.287,-1.631l-1.96,-5.104l2.64,-1.014c1.15,-0.441 1.207,-1.538 0.965,-2.167c-0.06,-0.156 -0.208,-0.251 -0.365,-0.251l-0.005,0Zm-4.868,6.362c-0.198,-0.514 -0.77,-0.774 -1.276,-0.58c-0.208,0.08 -0.372,0.224 -0.481,0.402c-0.199,-0.06 -0.418,-0.056 -0.626,0.023c-0.506,0.195 -0.756,0.771 -0.559,1.285c0.134,0.348 0.495,0.631 1.105,0.864c0.397,0.152 0.762,0.229 0.778,0.232c0.074,0.015 0.15,0.008 0.219,-0.018c0.068,-0.026 0.129,-0.072 0.174,-0.133c0.009,-0.013 0.23,-0.314 0.423,-0.693c0.297,-0.581 0.376,-1.033 0.243,-1.382l0,0Zm5.739,-2.634c-0.207,0.08 -0.372,0.224 -0.48,0.401c-0.2,-0.059 -0.419,-0.056 -0.626,0.024c-0.506,0.194 -0.757,0.77 -0.56,1.285c0.134,0.348 0.495,0.631 1.106,0.864c0.397,0.152 0.762,0.228 0.777,0.231c0.075,0.016 0.15,0.009 0.219,-0.018c0.068,-0.026 0.129,-0.071 0.174,-0.133c0.01,-0.013 0.23,-0.313 0.423,-0.692c0.297,-0.582 0.377,-1.034 0.243,-1.382c-0.198,-0.514 -0.77,-0.774 -1.276,-0.58Zm-7.716,0.495c0.397,0.152 0.762,0.228 0.777,0.231c0.075,0.015 0.151,0.008 0.219,-0.018c0.068,-0.026 0.129,-0.072 0.175,-0.133c0.009,-0.013 0.229,-0.314 0.422,-0.692c0.297,-0.582 0.377,-1.034 0.243,-1.382c-0.197,-0.514 -0.77,-0.775 -1.276,-0.58c-0.207,0.079 -0.372,0.223 -0.48,0.401c-0.2,-0.059 -0.419,-0.056 -0.626,0.024c-0.506,0.194 -0.757,0.77 -0.56,1.284c0.134,0.349 0.496,0.631 1.106,0.865Z"/></g></svg>