<?xml version="1.0" encoding="UTF-8" standalone="no"?><!DOCTYPE svg PUBLIC "-//W3C//DTD SVG 1.1//EN" "http://www.w3.org/Graphics/SVG/1.1/DTD/svg11.dtd"><svg width="100%" height="100%" viewBox="0 0 24 24" version="1.1" xmlns="http://www.w3.org/2000/svg" xmlns:xlink="http://www.w3.org/1999/xlink" xml:space="preserve" style="fill-rule:evenodd;clip-rule:evenodd;stroke-linejoin:round;stroke-miterlimit:1.41421;"><path id="Spotify" d="M12,0c-6.627,0 -12,5.373 -12,12c0,6.628 5.373,12 12,12c6.628,0 12,-5.372 12,-12c0,-6.627 -5.372,-11.999 -12,-11.999l0,-0.001Zm5.503,17.308c-0.215,0.352 -0.676,0.464 -1.029,0.247c-2.817,-1.721 -6.364,-2.11 -10.541,-1.156c-0.403,0.092 -0.804,-0.16 -0.896,-0.563c-0.092,-0.403 0.159,-0.804 0.563,-0.896c4.571,-1.045 8.492,-0.594 11.655,1.339c0.353,0.216 0.464,0.676 0.248,1.029Zm1.469,-3.268c-0.271,0.44 -0.847,0.579 -1.287,0.308c-3.226,-1.983 -8.142,-2.557 -11.958,-1.399c-0.494,0.15 -1.017,-0.129 -1.167,-0.623c-0.149,-0.495 0.13,-1.016 0.624,-1.167c4.358,-1.322 9.776,-0.682 13.48,1.595c0.44,0.27 0.579,0.846 0.308,1.286l0,0Zm0.126,-3.403c-3.868,-2.297 -10.249,-2.508 -13.941,-1.388c-0.593,0.18 -1.22,-0.154 -1.4,-0.747c-0.18,-0.594 0.155,-1.22 0.748,-1.401c4.239,-1.286 11.286,-1.038 15.738,1.606c0.535,0.316 0.71,1.005 0.393,1.538c-0.315,0.533 -1.006,0.709 -1.538,0.392l0,0Z"/></svg>